<svg xmlns="http://www.w3.org/2000/svg" version="1.1" xmlns:xlink="http://www.w3.org/1999/xlink" xmlns:svgjs="http://svgjs.dev/svgjs" width="1440" height="560" preserveAspectRatio="none" viewBox="0 0 1440 560"><g mask="url(&quot;#SvgjsMask1000&quot;)" fill="none"><rect width="1440" height="560" x="0" y="0" fill="#1e3266"></rect><path d="M1488 560L0 560 L0 336.71Q46.96 311.67, 72 358.63Q126.91 293.54, 192 348.46Q224.22 260.68, 312 292.9Q362.16 271.06, 384 321.22Q413.29 278.51, 456 307.81Q504.81 284.62, 528 333.43Q600.67 286.1, 648 358.77Q689.67 328.44, 720 370.12Q745.45 275.57, 840 301.03Q881.74 270.77, 912 312.51Q968.84 297.35, 984 354.18Q1054.87 305.05, 1104 375.92Q1137.38 289.3, 1224 322.67Q1276.15 254.83, 1344 306.98Q1410.21 301.19, 1416 367.4Q1446.14 325.54, 1488 355.68z" fill="#182f5d"></path><path d="M1488 560L0 560 L0 408.57Q41.47 378.04, 72 419.52Q120.43 395.94, 144 444.37Q144.49 372.86, 216 373.35Q246.01 331.37, 288 361.38Q335.59 336.97, 360 384.55Q443.17 347.72, 480 430.88Q504.48 383.36, 552 407.83Q578.84 362.67, 624 389.51Q678.87 324.38, 744 379.25Q835.28 350.53, 864 441.81Q887.53 345.34, 984 368.87Q1056.93 321.8, 1104 394.73Q1119.29 338.02, 1176 353.31Q1250.49 307.81, 1296 382.3Q1345.9 360.2, 1368 410.1Q1398.38 320.48, 1488 350.85z" fill="#25467d"></path><path d="M1488 560L0 560 L0 507.7Q62.43 450.13, 120 512.56Q152.08 424.64, 240 456.72Q286.04 382.76, 360 428.8Q459.92 408.72, 480 508.63Q529.95 438.57, 600 488.52Q612.48 429, 672 441.47Q715.13 412.6, 744 455.72Q798.76 438.48, 816 493.24Q827.48 432.72, 888 444.19Q915.79 399.99, 960 427.78Q1039.95 387.73, 1080 467.68Q1101.57 417.25, 1152 438.82Q1217.25 384.07, 1272 449.32Q1341.47 446.79, 1344 516.26Q1359.6 459.86, 1416 475.45Q1436.93 424.38, 1488 445.32z" fill="#356cb1"></path><path d="M1560 560L0 560 L0 567.99Q39.56 535.55, 72 575.11Q121.98 505.09, 192 555.07Q196.06 487.13, 264 491.2Q353.11 460.31, 384 549.43Q436.1 529.53, 456 581.63Q486.81 540.44, 528 571.26Q539.49 510.75, 600 522.24Q650.61 452.85, 720 503.46Q797.66 461.13, 840 538.79Q885.59 512.38, 912 557.97Q919.96 493.93, 984 501.89Q1038.89 436.78, 1104 491.68Q1151.22 466.9, 1176 514.12Q1206.57 472.69, 1248 503.25Q1324.95 460.2, 1368 537.15Q1422.32 519.47, 1440 573.79Q1494.41 508.2, 1560 562.61z" fill="white"></path></g><defs><mask id="SvgjsMask1000"><rect width="1440" height="560" fill="#ffffff"></rect></mask></defs></svg>