<?xml version="1.0" encoding="utf-8"?>
<!-- Generator: Adobe Illustrator 26.3.1, SVG Export Plug-In . SVG Version: 6.00 Build 0)  -->
<svg version="1.1" id="Layer_1" xmlns="http://www.w3.org/2000/svg" xmlns:xlink="http://www.w3.org/1999/xlink" x="0px" y="0px"
	 viewBox="0 0 897.6 470.2" style="enable-background:new 0 0 897.6 470.2;" xml:space="preserve">
<style type="text/css">
	.st0{fill:none;stroke:#DEE3FC;stroke-width:0.7896;stroke-miterlimit:10;}
	.st1{fill:#DEE3FC;}
	.st2{fill:#A4AFFF;}
	.st3{fill:#FFFFFF;}
	.st4{fill:#3B47BC;}
	.st5{fill:none;stroke:#698BD1;stroke-linecap:round;stroke-linejoin:round;stroke-miterlimit:10;stroke-dasharray:2.837;}
	.st6{fill:#4B5A9B;}
	.st7{fill:#283B8A;}
	.st8{fill:#B2C1F9;}
	.st9{fill:#3052CE;}
	.st10{fill:none;stroke:#495AD6;stroke-width:0.8956;stroke-miterlimit:10;}
	.st11{fill:none;stroke:#495AD6;stroke-width:1.6716;stroke-linecap:round;stroke-linejoin:round;stroke-miterlimit:10;}
	.st12{fill:#F0F4FF;}
	.st13{fill:#3D49BD;}
	.st14{fill:#495AD6;}
	.st15{fill:#281616;}
	.st16{fill:#002C54;}
	.st17{fill:#052635;}
	.st18{fill:#E5918F;}
	.st19{fill:#C7E5F2;}
	.st20{fill:#CC6362;}
	.st21{fill:none;stroke:#FFFFFF;stroke-width:0.501;stroke-miterlimit:10;}
	.st22{opacity:0.5;}
	.st23{fill:#375F84;}
	.st24{fill:#467CDB;}
	.st25{fill:#E49191;}
	.st26{fill:#5996EF;}
	.st27{fill:none;stroke:#FFFFFF;stroke-width:0.8956;stroke-miterlimit:10;}
	.st28{fill:#FFFFFF;stroke:#495AD6;stroke-width:0.8956;stroke-miterlimit:10;}
	.st29{fill:none;stroke:#495AD6;stroke-width:1.6716;stroke-miterlimit:10;}
	.st30{fill:none;stroke:#495AD6;stroke-width:1.6716;stroke-linecap:round;stroke-miterlimit:10;}
	.st31{fill:#193091;}
	.st32{fill:none;stroke:#FFFFFF;stroke-width:0.8956;stroke-linecap:round;stroke-miterlimit:10;}
	.st33{fill:#6589D1;}
	.st34{fill:#3B5FB7;}
	.st35{fill:#283B8A;stroke:#DEE3FC;stroke-miterlimit:10;}
	.st36{fill:#B4C1EF;}
	.st37{fill:#F5F5F5;}
	.st38{fill:#1A2E35;}
	.st39{opacity:0.6;fill:#FFFFFF;enable-background:new    ;}
	.st40{opacity:0.4;fill:#FFFFFF;enable-background:new    ;}
	.st41{opacity:0.2;enable-background:new    ;}
	.st42{opacity:0.5;fill:#FFFFFF;enable-background:new    ;}
	.st43{opacity:0.4;enable-background:new    ;}
	.st44{opacity:0.2;fill:#FFFFFF;enable-background:new    ;}
	.st45{opacity:0.6;fill:#283B8A;enable-background:new    ;}
	.st46{opacity:0.9;fill:#FFFFFF;}
	.st47{opacity:0.6;fill:#FFFFFF;}
	.st48{opacity:0.4;fill:#FFFFFF;}
	.st49{fill:#FCB373;}
	.st50{fill:none;stroke:#1A2E35;stroke-width:0.5;stroke-miterlimit:10;}
	.st51{fill:#FD897B;}
	.st52{opacity:0.2;fill:#FFFFFF;}
	.st53{opacity:0.3;fill:#FFFFFF;enable-background:new    ;}
	.st54{opacity:0.3;enable-background:new    ;}
	.st55{opacity:0.1;}
	.st56{fill:none;stroke:#283B8A;stroke-width:2;stroke-miterlimit:10;}
	.st57{fill:#43B4A2;}
	.st58{fill:none;stroke:#1A2E35;stroke-miterlimit:10;stroke-dasharray:4,3;}
</style>
<g>
	<path class="st0" d="M181.7,67.9V55.1c0-1.3-1-2.3-2.3-2.3h-3.3c-1,0-1.8-0.7-2-1.6c-1.1-5-3.1-9.6-5.7-13.8
		c-0.5-0.8-0.4-1.9,0.3-2.6l2.3-2.3c0.9-0.9,0.9-2.3,0-3.2l-9-9c-0.9-0.9-2.3-0.9-3.2,0l-2.3,2.3c-0.7,0.7-1.8,0.8-2.6,0.3
		c-4.2-2.6-8.9-4.6-13.8-5.7c-0.9-0.2-1.6-1.1-1.6-2v-3.3c0-1.3-1-2.3-2.3-2.3h-12.8c-1.3,0-2.3,1-2.3,2.3v3.3c0,1-0.7,1.8-1.6,2
		c-5,1.1-9.6,3.1-13.8,5.7c-0.8,0.5-1.9,0.4-2.6-0.3l-2.3-2.3c-0.9-0.9-2.3-0.9-3.2,0l-9,9c-0.9,0.9-0.9,2.3,0,3.2l2.3,2.3
		c0.7,0.7,0.8,1.8,0.3,2.6c-2.6,4.2-4.6,8.9-5.7,13.8c-0.2,0.9-1.1,1.6-2,1.6H80c-1.3,0-2.3,1-2.3,2.3v12.8c0,1.3,1,2.3,2.3,2.3h3.3
		c1,0,1.8,0.7,2,1.6c1.1,5,3.1,9.6,5.7,13.8c0.5,0.8,0.4,1.9-0.3,2.6l-2.3,2.3c-0.9,0.9-0.9,2.3,0,3.2l9,9c0.9,0.9,2.3,0.9,3.2,0
		l2.3-2.3c0.7-0.7,1.8-0.8,2.6-0.3c4.2,2.6,8.9,4.6,13.8,5.7c0.9,0.2,1.6,1.1,1.6,2v3.3c0,1.3,1,2.3,2.3,2.3h12.8
		c1.3,0,2.3-1,2.3-2.3v-3.3c0-1,0.7-1.8,1.6-2c5-1.1,9.6-3.1,13.8-5.7c0.8-0.5,1.9-0.4,2.6,0.3l2.3,2.3c0.9,0.9,2.3,0.9,3.2,0l9-9
		c0.9-0.9,0.9-2.3,0-3.2l-2.3-2.3c-0.7-0.7-0.8-1.8-0.3-2.6c2.6-4.2,4.6-8.9,5.7-13.8c0.2-0.9,1.1-1.6,2-1.6h3.3
		C180.6,70.1,181.7,69.1,181.7,67.9z M129.7,97.5c-19.9,0-36-16.2-36-36.1c0-19.9,16.1-36,36-36c19.9,0,36,16.2,36,36
		C165.7,81.4,149.6,97.5,129.7,97.5z"/>
	<path class="st1" d="M240.5,111.2v-8.7c0-0.9-0.7-1.5-1.5-1.5h-2.2c-0.7,0-1.2-0.4-1.4-1.1c-0.8-3.4-2.1-6.6-3.9-9.4
		c-0.4-0.6-0.3-1.3,0.2-1.8l1.6-1.6c0.6-0.6,0.6-1.6,0-2.2l-6.2-6.2c-0.6-0.6-1.6-0.6-2.2,0l-1.6,1.6c-0.5,0.5-1.2,0.5-1.8,0.2
		c-2.9-1.8-6-3.1-9.4-3.9c-0.6-0.1-1.1-0.7-1.1-1.4v-2.2c0-0.9-0.7-1.5-1.5-1.5h-8.7c-0.9,0-1.5,0.7-1.5,1.5v2.2
		c0,0.7-0.4,1.2-1.1,1.4c-3.4,0.8-6.6,2.1-9.4,3.9c-0.6,0.4-1.3,0.3-1.8-0.2l-1.6-1.6c-0.6-0.6-1.6-0.6-2.2,0l-6.2,6.2
		c-0.6,0.6-0.6,1.6,0,2.2l1.6,1.6c0.5,0.5,0.5,1.2,0.2,1.8c-1.8,2.9-3.1,6-3.9,9.4c-0.1,0.6-0.7,1.1-1.4,1.1h-2.2
		c-0.9,0-1.5,0.7-1.5,1.5v8.7c0,0.9,0.7,1.5,1.5,1.5h2.2c0.7,0,1.2,0.4,1.4,1.1c0.8,3.4,2.1,6.6,3.9,9.4c0.4,0.6,0.3,1.3-0.2,1.8
		l-1.6,1.6c-0.6,0.6-0.6,1.6,0,2.2l6.2,6.2c0.6,0.6,1.6,0.6,2.2,0l1.6-1.6c0.5-0.5,1.2-0.5,1.8-0.2c2.9,1.8,6,3.1,9.4,3.9
		c0.6,0.1,1.1,0.7,1.1,1.4v2.2c0,0.9,0.7,1.5,1.5,1.5h8.7c0.9,0,1.5-0.7,1.5-1.5v-2.2c0-0.7,0.4-1.2,1.1-1.4
		c3.4-0.8,6.6-2.1,9.4-3.9c0.6-0.4,1.3-0.3,1.8,0.2l1.6,1.6c0.6,0.6,1.6,0.6,2.2,0l6.2-6.2c0.6-0.6,0.6-1.6,0-2.2l-1.6-1.6
		c-0.5-0.5-0.5-1.2-0.2-1.8c1.8-2.9,3.1-6,3.9-9.4c0.1-0.6,0.7-1.1,1.4-1.1h2.2C239.8,112.7,240.5,112,240.5,111.2z M205.1,130
		c-12.8,0-23.2-10.4-23.2-23.2c0-12.8,10.4-23.2,23.2-23.2c12.8,0,23.2,10.4,23.2,23.2C228.2,119.6,217.9,130,205.1,130z"/>
</g>
<ellipse id="_x3C_Path_x3E__359_" class="st37" cx="502.7" cy="446" rx="283.7" ry="16.6"/>
<g>
	<g>
		<polygon class="st38" points="344.7,153.2 363.5,153.2 358.5,207 388.2,211.5 388.2,215.3 325.6,215.3 325.6,211.5 338.4,207 		
			"/>
		<path class="st38" d="M417.7,187.4c0.3,3.6-2.3,6.5-5.9,6.5H297.9c-3.6,0-6.8-2.9-7.1-6.5l-6.8-72.9c-0.1-0.8,0-1.5,0.1-2.1
			c0.6-2.6,2.9-4.4,5.8-4.4h113.8c3.6,0,6.8,2.9,7.1,6.5L417.7,187.4z"/>
		<path class="st7" d="M297.9,190.2c-1.7,0-3.3-1.5-3.5-3.2l-6.8-72.9c0-0.3,0-0.6,0.1-0.9c0.3-1,1.1-1.6,2.2-1.6h113.8
			c1.7,0,3.3,1.5,3.5,3.2l6.8,72.9c0.1,0.7-0.1,1.4-0.6,1.8c-0.3,0.3-0.8,0.7-1.7,0.7H297.9z"/>
		<path class="st39" d="M297.9,190.2c-1.7,0-3.3-1.5-3.5-3.2l-6.8-72.9c0-0.3,0-0.6,0.1-0.9c0.3-1,1.1-1.6,2.2-1.6h113.8
			c1.7,0,3.3,1.5,3.5,3.2l6.8,72.9c0.1,0.7-0.1,1.4-0.6,1.8c-0.3,0.3-0.8,0.7-1.7,0.7H297.9z"/>
	</g>
	<g>
		<g>
			<polygon class="st38" points="275.6,450 266.6,450 250.5,225.7 262.4,225.7 			"/>
			<polygon class="st40" points="275.6,450 266.6,450 251.3,236.9 250.5,226.1 262.4,226.1 263.1,236.9 			"/>
			<polygon class="st41" points="263.1,236.3 251.3,236.3 250.5,226.1 262.4,226.1 			"/>
		</g>
		<g>
			<polygon class="st38" points="487.7,450 478.8,450 477.3,225.7 489.2,225.7 			"/>
			<polygon class="st42" points="489.2,226.1 489,262.3 487.7,450 478.8,450 477.5,262.3 477.3,226.1 			"/>
			<polygon class="st41" points="489.2,226.1 489,262.7 477.5,262.7 477.3,226.1 			"/>
		</g>
		<g>
			<polygon class="st38" points="582.9,450 573.9,450 557.8,225.7 569.7,225.7 			"/>
			<polygon class="st42" points="582.9,450 573.9,450 558.6,236.9 557.8,226.1 569.7,226.1 570.4,236.9 			"/>
			<polygon class="st41" points="570.4,236.3 558.6,236.3 557.8,226.1 569.7,226.1 			"/>
		</g>
		<g>
			<polygon class="st38" points="173.1,450 164.1,450 177.3,225.7 189.2,225.7 			"/>
			<polygon class="st42" points="189.2,226.1 188.4,236.9 173,450 164.1,450 176.6,236.9 177.3,226.1 			"/>
			<polygon class="st41" points="177.3,226.1 189.2,226.1 188.4,236.3 176.6,236.3 			"/>
		</g>
		<g>
			<path class="st7" d="M577,231.4H170c-1.2,0-2.2-1-2.2-2.2v-9.1h411.3v9.1C579.1,230.4,578.2,231.4,577,231.4z"/>
			<path class="st39" d="M577,231.4H170c-1.2,0-2.2-1-2.2-2.2v-9.1h411.3v9.1C579.1,230.4,578.2,231.4,577,231.4z"/>
		</g>
		<rect x="167.8" y="220.1" class="st41" width="411.3" height="5.6"/>
		<g>
			<path class="st7" d="M584.7,221.6H162.3c-1.7,0-3.2-1.4-3.2-3.2l0,0c0-1.7,1.4-3.2,3.2-3.2h422.4c1.7,0,3.2,1.4,3.2,3.2l0,0
				C587.9,220.2,586.4,221.6,584.7,221.6z"/>
			<path class="st39" d="M584.7,221.6H162.3c-1.7,0-3.2-1.4-3.2-3.2l0,0c0-1.7,1.4-3.2,3.2-3.2h422.4c1.7,0,3.2,1.4,3.2,3.2l0,0
				C587.9,220.2,586.4,221.6,584.7,221.6z"/>
		</g>
	</g>
	<g>
		<polygon class="st38" points="363.3,215.3 364.7,209.8 424.1,209.8 451.4,212.5 452.4,215.3 		"/>
		<polygon class="st43" points="424.1,209.8 424.1,215.3 363.3,215.3 364.7,209.8 		"/>
	</g>
	<g>
		<polygon class="st38" points="218.8,153.2 237.6,153.2 218,207 247.7,211.5 247.7,215.3 185.1,215.3 185.1,211.5 197.9,207 		"/>
		<path class="st38" d="M273.9,113.7c-0.6-3.6-4.1-6.6-7.7-6.6h-2.9H167h-2.9c-2.9,0-5,1.9-5.4,4.5c-0.1,0.7-0.1,1.4,0,2.1l13,73.6
			c0.6,3.6,4.1,6.6,7.7,6.6h2.9h96.3h2.9c3.6,0,6-3,5.3-6.6L273.9,113.7z"/>
		<path class="st44" d="M286.8,187.3c0.6,3.6-1.8,6.6-5.3,6.6h-99.2c-3.6,0-7-3-7.7-6.6l-13-73.6c-0.1-0.8-0.1-1.5,0-2.1
			c0.4-2.6,2.5-4.5,5.4-4.5h99.2c3.6,0,7,3,7.7,6.6L286.8,187.3z"/>
		<path class="st7" d="M182,190.2c-1.7,0-3.4-1.5-3.8-3.2l-13-73.6c-0.1-0.3-0.1-0.6,0-0.9c0.2-1,1-1.7,2.1-1.7h99.2
			c1.7,0,3.4,1.5,3.8,3.2l13,73.6c0.1,0.7,0,1.4-0.4,1.9c-0.3,0.3-0.8,0.7-1.6,0.7H182z"/>
		<path class="st45" d="M182,190.2c-1.7,0-3.4-1.5-3.8-3.2l-13-73.6c-0.1-0.3-0.1-0.6,0-0.9c0.2-1,1-1.7,2.1-1.7h99.2
			c1.7,0,3.4,1.5,3.8,3.2l13,73.6c0.1,0.7,0,1.4-0.4,1.9c-0.3,0.3-0.8,0.7-1.6,0.7H182z"/>
	</g>
	<g>
		<polygon class="st38" points="464.7,153.2 483.5,153.2 463.8,207 493.6,211.5 493.6,215.3 430.9,215.3 430.9,211.5 443.8,207 		
			"/>
		<path class="st38" d="M530.6,114.5c-0.1-3.6-3.2-6.5-6.8-6.5h-2.9h-96.3h-2.9c-2.9,0-5.2,1.9-6,4.4c-0.2,0.7-0.3,1.4-0.3,2.1
			l3,72.9c0.1,3.6,3.2,6.5,6.8,6.5h2.9h96.3h2.9c3.6,0,6.4-2.9,6.2-6.5L530.6,114.5z"/>
		<path class="st40" d="M533.6,187.4c0.1,3.6-2.6,6.5-6.2,6.5h-99.2c-3.6,0-6.6-2.9-6.8-6.5l-3-72.9c0-0.8,0.1-1.5,0.3-2.1
			c0.8-2.6,3.1-4.4,6-4.4h99.2c3.6,0,6.6,2.9,6.8,6.5L533.6,187.4z"/>
		<path class="st7" d="M428.3,190.2c-1.7,0-3.2-1.5-3.3-3.2l-3-72.9c0-0.3,0-0.6,0.1-0.9c0.3-1,1.2-1.6,2.3-1.6h99.2
			c1.7,0,3.2,1.5,3.3,3.2l3,72.9c0,0.7-0.2,1.4-0.7,1.8c-0.3,0.3-0.9,0.7-1.7,0.7H428.3z"/>
		<path class="st45" d="M428.3,190.2c-1.7,0-3.2-1.5-3.3-3.2l-3-72.9c0-0.3,0-0.6,0.1-0.9c0.3-1,1.2-1.6,2.3-1.6h99.2
			c1.7,0,3.2,1.5,3.3,3.2l3,72.9c0,0.7-0.2,1.4-0.7,1.8c-0.3,0.3-0.9,0.7-1.7,0.7H428.3z"/>
	</g>
	<path class="st43" d="M428.3,190.2c-1.7,0-3.2-1.5-3.3-3.2l-3-72.9c0-0.3,0-0.6,0.1-0.9c0.3-1,1.2-1.6,2.3-1.6h99.2
		c1.7,0,3.2,1.5,3.3,3.2l3,72.9c0,0.7-0.2,1.4-0.7,1.8c-0.3,0.3-0.9,0.7-1.7,0.7H428.3z"/>
	<g>
		<polygon class="st3" points="518.7,119.4 445.8,119.4 445.8,118 518.6,118 		"/>
		<polygon class="st3" points="518.8,123.5 454,123.5 454,122.2 518.8,122.2 		"/>
		<polygon class="st3" points="519,127.7 478.1,127.7 478,126.3 519,126.3 		"/>
		<polygon class="st3" points="519.2,131.9 466,131.9 466,130.5 519.2,130.5 		"/>
		<polygon class="st3" points="519.4,136 484.1,136 484.1,134.7 519.3,134.7 		"/>
		<g>
			<polygon class="st3" points="520,148.7 447.1,148.7 447.1,147.3 519.9,147.3 			"/>
			<polygon class="st3" points="520.1,152.9 455.3,152.9 455.3,151.5 520.1,151.5 			"/>
			<polygon class="st3" points="520.3,157 479.4,157 479.3,155.7 520.3,155.7 			"/>
			<polygon class="st3" points="520.5,161.2 467.3,161.2 467.3,159.8 520.4,159.8 			"/>
			<polygon class="st3" points="520.7,165.3 485.4,165.3 485.4,164 520.6,164 			"/>
		</g>
	</g>
	<g>
		<g>
			<polygon class="st7" points="361.6,163.6 298.1,163.6 294.4,122 357.9,122 			"/>
			<polygon class="st7" points="361.6,163.6 298.1,163.6 294.4,122 357.9,122 			"/>
		</g>
		<polygon class="st38" points="359.1,161.5 300.3,161.5 297.4,129.8 356.3,129.8 		"/>
		<g>
			<polygon class="st3" points="346.3,135.9 302.8,135.9 302.6,134.6 346.2,134.6 			"/>
			<polygon class="st3" points="324,140.1 303.1,140.1 303,138.7 323.9,138.7 			"/>
			<polygon class="st3" points="329.8,144.3 303.5,144.3 303.4,142.9 329.7,142.9 			"/>
			<polygon class="st3" points="313.2,148.4 303.9,148.4 303.8,147.1 313,147.1 			"/>
			<polygon class="st3" points="310.3,152.6 304.3,152.6 304.1,151.3 310.1,151.3 			"/>
		</g>
	</g>
	<g>
		<g>
			<polygon class="st7" points="403.6,184.4 340.1,184.4 336.3,142.8 399.9,142.8 			"/>
			<polygon class="st7" points="403.6,184.4 340.1,184.4 336.3,142.8 399.9,142.8 			"/>
		</g>
		<polygon class="st38" points="401.1,182.3 342.2,182.3 339.4,150.6 398.3,150.6 		"/>
		<g>
			<polygon class="st3" points="388.3,156.7 344.7,156.7 344.6,155.3 388.2,155.3 			"/>
			<polygon class="st3" points="366,160.9 345.1,160.9 345,159.5 365.9,159.5 			"/>
			<polygon class="st3" points="371.8,165.1 345.5,165.1 345.3,163.7 371.7,163.7 			"/>
			<polygon class="st3" points="355.1,169.2 345.8,169.2 345.7,167.9 355,167.9 			"/>
			<polygon class="st3" points="352.2,173.4 346.2,173.4 346.1,172 352.1,172 			"/>
		</g>
	</g>
	<g>
		<polygon class="st39" points="280,182.3 181,182.3 169.4,117.7 268.4,117.7 		"/>
		<polygon class="st39" points="208.3,179.8 182.5,179.8 173,126.6 198.8,126.6 		"/>
		<polygon class="st39" points="210.6,179.8 277.5,179.8 267.9,126.6 201.1,126.6 		"/>
		<g class="st43">
			<polygon points="196.2,132 177.5,132 177.3,130.7 195.9,130.7 			"/>
			<polygon points="188.9,136 178.2,136 178,134.7 188.6,134.7 			"/>
			<polygon points="193.6,140.1 178.9,140.1 178.7,138.7 193.3,138.7 			"/>
			<polygon points="188.9,144.1 179.7,144.1 179.4,142.7 188.7,142.7 			"/>
			<polygon points="186.4,148.1 180.4,148.1 180.1,146.7 186.1,146.7 			"/>
			<polygon points="199.8,152.1 181.1,152.1 180.9,150.8 199.5,150.8 			"/>
			<polygon points="192.5,156.1 181.8,156.1 181.6,154.8 192.2,154.8 			"/>
			<polygon points="197.2,160.2 182.5,160.2 182.3,158.8 196.9,158.8 			"/>
			<polygon points="192.5,164.2 183.3,164.2 183,162.8 192.3,162.8 			"/>
			<polygon points="190,168.2 184,168.2 183.7,166.8 189.8,166.8 			"/>
			<polygon points="194,172.2 184.7,172.2 184.5,170.9 193.7,170.9 			"/>
			<polygon points="191.4,176.2 185.4,176.2 185.2,174.9 191.2,174.9 			"/>
		</g>
		<g class="st43">
			<polygon points="254.7,132 206.8,132 206.5,130.7 254.5,130.7 			"/>
			<polygon points="247.4,136 207.5,136 207.2,134.7 247.2,134.7 			"/>
			<polygon points="252.1,140.1 208.2,140.1 208,138.7 251.8,138.7 			"/>
			<polygon points="247.5,144.1 208.9,144.1 208.7,142.7 247.2,142.7 			"/>
			<polygon points="244.9,148.1 209.6,148.1 209.4,146.7 244.7,146.7 			"/>
			<polygon points="258.3,152.1 210.4,152.1 210.1,150.8 258.1,150.8 			"/>
			<polygon points="251,156.1 211.1,156.1 210.8,154.8 250.8,154.8 			"/>
			<polygon points="255.7,160.2 211.8,160.2 211.6,158.8 255.5,158.8 			"/>
			<polygon points="251.1,164.2 212.5,164.2 212.3,162.8 250.8,162.8 			"/>
			<polygon points="248.5,168.2 213.3,168.2 213,166.8 248.3,166.8 			"/>
			<polygon points="252.5,172.2 214,172.2 213.7,170.9 252.3,170.9 			"/>
			<polygon points="250,176.2 214.7,176.2 214.5,174.9 249.7,174.9 			"/>
		</g>
	</g>
</g>
<g>
	<path class="st7" d="M463.6,75.1h46.8c1.7,0,3-1.4,3-3V25.3c0-1.7-1.4-3-3-3h-46.8c-1.7,0-3,1.4-3,3v46.8
		C460.6,73.7,462,75.1,463.6,75.1z"/>
	<path class="st7" d="M493.1,70.4c0,0-2.7,14.9-22.4,21.6c0,0,11.2-10.8,11.2-21.6H493.1z"/>
	<g>
		<g>
			<path class="st46" d="M490,43v-3.2l-1.6-0.2c-0.2-1.1-0.6-2.1-1.2-3l1.1-1.3l-2.3-2.3l-1.3,1.1c-0.9-0.6-1.9-1-3-1.2l-0.2-1.6
				h-3.2l-0.2,1.6c-1.1,0.2-2.1,0.6-3,1.2l-1.3-1.1l-2.3,2.3l1.1,1.3c-0.6,0.9-1,1.9-1.2,3l-1.6,0.2V43l1.6,0.2
				c0.2,1.1,0.6,2.1,1.2,3l-1.1,1.3l2.3,2.3l1.3-1.1c0.9,0.6,1.9,1,3,1.2l0.2,1.6h3.2l0.2-1.6c1.1-0.2,2.1-0.6,3-1.2l1.3,1.1
				l2.3-2.3l-1.1-1.3c0.6-0.9,1-1.9,1.2-3L490,43z M479.9,45.7c-2.4,0-4.3-1.9-4.3-4.3c0-2.4,1.9-4.3,4.3-4.3c2.4,0,4.3,1.9,4.3,4.3
				C484.3,43.8,482.3,45.7,479.9,45.7z"/>
			<path class="st47" d="M503,52v-2.5l-1.3-0.1c-0.2-0.8-0.5-1.6-1-2.3l0.8-1l-1.8-1.8l-1,0.8c-0.7-0.5-1.5-0.8-2.3-1l-0.1-1.3h-2.5
				l-0.1,1.3c-0.8,0.2-1.6,0.5-2.3,1l-1-0.8l-1.8,1.8l0.8,1c-0.5,0.7-0.8,1.5-1,2.3l-1.3,0.1V52l1.3,0.1c0.2,0.8,0.5,1.6,1,2.3
				l-0.8,1l1.8,1.8l1-0.8c0.7,0.5,1.5,0.8,2.3,1l0.1,1.3h2.5l0.1-1.3c0.8-0.2,1.6-0.5,2.3-1l1,0.8l1.8-1.8l-0.8-1
				c0.5-0.7,0.8-1.5,1-2.3L503,52z M495.1,54.2c-1.9,0-3.4-1.5-3.4-3.4c0-1.9,1.5-3.4,3.4-3.4c1.9,0,3.4,1.5,3.4,3.4
				C498.5,52.6,497,54.2,495.1,54.2z"/>
			<path class="st48" d="M490,59.1V57l-1.1-0.1c-0.1-0.7-0.4-1.4-0.8-1.9l0.7-0.8l-1.5-1.5l-0.8,0.7c-0.6-0.4-1.2-0.7-1.9-0.8
				l-0.1-1.1h-2.1l-0.1,1.1c-0.7,0.1-1.4,0.4-1.9,0.8l-0.8-0.7l-1.5,1.5l0.7,0.8c-0.4,0.6-0.7,1.2-0.8,1.9l-1.1,0.1l0,2.1l1.1,0.1
				c0.1,0.7,0.4,1.4,0.8,1.9l-0.7,0.8l1.5,1.5l0.8-0.7c0.6,0.4,1.2,0.7,1.9,0.8l0.1,1.1h2.1l0.1-1.1c0.7-0.1,1.4-0.4,1.9-0.8
				l0.8,0.7l1.5-1.5l-0.7-0.8c0.4-0.6,0.7-1.2,0.8-1.9L490,59.1z M483.4,60.9c-1.6,0-2.9-1.3-2.9-2.9c0-1.6,1.3-2.9,2.9-2.9
				c1.6,0,2.9,1.3,2.9,2.9C486.2,59.7,484.9,60.9,483.4,60.9z"/>
		</g>
	</g>
</g>
<g>
	<g id="_x3C_Group_x3E__38_">
		<polygon class="st49" points="482.1,441.2 470.5,439.6 468.9,411.9 480.5,413.5 		"/>
		<polygon class="st41" points="480.5,413.5 468.8,411.9 469.8,427.7 481.4,428.8 		"/>
		<path class="st38" d="M469.6,438.2l13.2-0.8c0.5,0,0.9,0.3,0.9,0.7c0,0,0,0,0,0l1.3,10.4c0.1,1.1-0.8,2.1-1.9,2.2
			c-4.6,0.2-6.8,0.1-12.6,0.4c-3.6,0.2-10.6,1-15.5,0.5c-4.9-0.5-4.3-5.3-2.2-5.5c5-0.6,11.7-4.3,14.8-7.1
			C468.2,438.5,468.9,438.2,469.6,438.2z"/>
		<g>
			<path class="st7" d="M469.3,439.6C469.3,439.6,469.3,439.6,469.3,439.6C469.3,439.6,469.3,439.6,469.3,439.6
				c0-0.2-0.2-3.5-1.4-4.6c-0.3-0.3-0.9-0.4-1.3-0.3c-0.5,0-0.9,0.4-1,0.9c-0.1,0.7,0.4,1.8,1.2,2.7c-1.1-0.5-2.5-0.9-3.3-0.6
				c-0.3,0.2-0.5,0.5-0.6,0.8c-0.2,0.5,0,1.1,0.4,1.5c0.7,0.4,1.5,0.6,2.2,0.4c1-0.1,2.1-0.3,3.1-0.6c0,0,0.1,0,0.1,0
				c0,0,0-0.1,0-0.1c0,0,0.3-0.1,0.3-0.1C469.1,439.7,469.3,439.6,469.3,439.6C469.3,439.6,469.3,439.6,469.3,439.6z M466.1,435.7
				c0-0.2,0.1-0.4,0.5-0.4l0.1,0c0.2,0,0.4,0.1,0.6,0.2c0.7,0.6,0.9,2.5,1,3.6c-0.1,0-0.2-0.1-0.2-0.1
				C467,438.1,466,436.5,466.1,435.7z M463.7,439.6c-0.2-0.3-0.3-0.6-0.3-1c0-0.2,0.1-0.3,0.3-0.4c0.7-0.3,2.8,0.5,4.2,1.3
				C465.8,440.1,464.3,440.1,463.7,439.6z"/>
		</g>
		<path class="st38" d="M481.7,278.3l2.8-17.8l65.3-3.9c0,0,6.9,37.1,1.6,47c-9.5,17.6-60.9,8.7-75.9,10.5
			c9,36.7,8.1,108.5,8.1,108.5l-21.5,1.6c0,0-16.5-77.4-19.9-114.1C440.1,285.2,460.6,285.9,481.7,278.3z"/>
		<path class="st41" d="M481.7,278.3l2.8-17.8l65.3-3.9c0,0,6.9,37.1,1.6,47c-9.5,17.6-60.9,8.7-75.9,10.5
			c9,36.7,8.1,108.5,8.1,108.5l-21.5,1.6c0,0-16.5-77.4-19.9-114.1C440.1,285.2,460.6,285.9,481.7,278.3z"/>
		<g>
			<path class="st50" d="M433.8,127.3c0.3,2.7-0.9,5.1-2.6,5.3c-1.7,0.2-3.4-1.9-3.7-4.6c-0.3-2.7,0.9-5.1,2.6-5.3
				C431.9,122.5,433.5,124.6,433.8,127.3z"/>
			<path class="st51" d="M433.9,141.5c0.3,0.6,0.6,1.2,0.9,1.8c1.9,3.5,4.8,6.1,8.2,7.8c0.9,0.4,1.8,0.8,2.7,1.1
				c4.9,1.5,10.3,1.1,14.7-1.8c1.8-1.2,3.5-2.8,4.9-4.8c5.6-8,4.1-15.8,2.6-29.2c-0.3-2.9-1.2-5.7-2.8-8.1
				c-5.4-8.7-16.9-11.2-25.5-5.8C427.4,109.9,429,130,433.9,141.5z"/>
			<path class="st41" d="M443,151c0.9,0.4,1.8,0.8,2.7,1.1c4.9,1.5,10.3,1.1,14.7-1.8c-1.4-2.4-3.1-4.1-3.1-4.1S449,146.3,443,151z"
				/>
			<path class="st51" d="M478.2,154.6c-2.3,8.7-17.2,15.7-17.2,15.7s-10.1,3.2-10-0.6c4.5-4.1,5.4-8,4.5-11.7
				c-0.5-2.1-1.7-4.2-3.2-6.1c-0.8-1-1.6-2-2.5-2.9l8.8-23.5C461.7,135.2,468.9,152.2,478.2,154.6z"/>
			<path class="st38" d="M435.8,112c0,0-3.8,12.7,9.3,21.9c0,0,5.5,11.7,8.5,13.2c3.1,1.4,10,0.6,12.3,0s14.4-10.6,10.9-34
				c-3.5-23.5-23.2-16-23.2-16L435.8,112z"/>
			<path class="st51" d="M446.8,127.8c-0.3,3-1.5,5.4-3.4,6.7c-2.5,1.6-4.9-1.9-5.2-6c-0.2-3.6,0.8-8.9,3.8-8.8
				C444.9,119.9,447.2,124.1,446.8,127.8z"/>
			<path class="st38" d="M461.7,95.9c0,0-14.5-4-25.8,2c0,0,2.2-1.5,1.5-3.3c-0.7-1.8-5.8,4.8-5.8,4.8s1.7-6.4,0.7-6.9
				c-1.1-0.6-7.7,9.4-4.3,14.2c0,0-6.4-4.4-5.3-1c1.1,3.5,1.1,9.4,16,6.5C453.6,109.3,461.7,95.9,461.7,95.9z"/>
			<line class="st50" x1="427.5" y1="128" x2="438.1" y2="123.6"/>
		</g>
		<g>
			<path class="st7" d="M449.4,159.8c0,0,9.8-12.1,25.4-11.9l9.6,8L449.4,159.8z"/>
			<path class="st42" d="M449.4,159.8c0,0,9.8-12.1,25.4-11.9l9.6,8L449.4,159.8z"/>
		</g>
		<path class="st51" d="M390.2,209.9l-10.6-4.8c0,0-8.9-1.7-12.5-0.8c-3.7,0.8-11.8,11.8-11.6,13.2c0.2,1.4,14,4.6,14.4,4.6
			s6.3-3.4,6.3-3.4l9.8,3.4L390.2,209.9z"/>
		<polygon class="st7" points="486.2,423.6 460.4,425.3 458.1,414.2 486.5,412.9 		"/>
		<polygon class="st52" points="486.2,423.6 460.4,425.3 458.1,414.2 486.5,412.9 		"/>
		<polygon class="st49" points="455.2,441.1 443.5,442 436.1,415.2 447.9,414.3 		"/>
		<g>
			<path class="st7" d="M441.9,442.4c0,0-0.2,0-0.2,0c0,0-0.2,0-0.2,0c0,0,0,0,0,0c0,0,0.2,0,0.2,0c0-0.2-0.6-3.5-2-4.2
				c-0.4-0.2-0.8-0.2-1.2-0.1c-0.5,0.1-0.7,0.6-0.7,1.1c0.1,0.7,0.8,1.7,1.7,2.4c-1.2-0.3-2.6-0.4-3.3,0.1c-0.3,0.2-0.4,0.6-0.4,0.9
				c0,0.6,0.2,1.1,0.7,1.4c0.7,0.3,1.6,0.3,2.3,0c1-0.3,2-0.7,2.9-1.2c0,0,0.1,0,0.1,0c0,0,0-0.1,0-0.1
				C441.9,442.4,441.9,442.4,441.9,442.4z M438.4,439.1c0-0.2,0-0.4,0.4-0.5l0.1,0c0.2-0.1,0.4,0,0.6,0.1c0.9,0.5,1.4,2.2,1.7,3.3
				c-0.1,0-0.2-0.1-0.3-0.1C439.8,441.2,438.5,439.9,438.4,439.1z M436.8,443.4c-0.3-0.2-0.5-0.5-0.5-0.9c0-0.2,0.1-0.3,0.2-0.5
				c0.7-0.5,2.8-0.1,4.4,0.4C439,443.4,437.5,443.8,436.8,443.4z"/>
		</g>
		<polygon class="st41" points="447.9,414.3 436.1,415.2 440.4,430.5 451.9,429.1 		"/>
		<path class="st38" d="M432.2,428.6l20.7-6.1c0,0-12.3-69.6-24.8-93.8c0.9-0.3,2.2-0.7,3.7-1.2c2.8-0.8,6.4-1.9,10.8-3.1
			c30-8.3,90.9-23.9,90.9-23.9l-27.8-25.9c0,0-110.7,16.9-113,46.1C391.4,334.8,432.2,428.6,432.2,428.6z"/>
		<polygon class="st7" points="455.5,423 430.6,430 426.2,419.7 453.6,412.5 		"/>
		<polygon class="st52" points="455.5,423 430.6,430 426.2,419.7 453.6,412.5 		"/>
		<path class="st38" d="M442.3,440.8l12.7-3.5c0.4-0.1,0.9,0.1,1.1,0.5c0,0,0,0,0,0l3.4,9.9c0.3,1.1-0.3,2.2-1.4,2.6
			c-4.5,1.2-6.6,1.5-12.2,3c-3.4,0.9-10.1,3.1-15,3.7c-4.9,0.6-5.3-4.3-3.3-5c4.8-1.6,10.5-6.6,13-10
			C441,441.4,441.6,441,442.3,440.8z"/>
		<g>
			<path class="st7" d="M434.2,171.6c0,0,18.5-20.7,43.2-18.6c24.7,2.1,49.5,21.2,61.8,51.2s16,75.3,16,75.3s-40,11.4-80.7,1
				C474.6,280.6,464,226.8,434.2,171.6z"/>
			<path class="st39" d="M434.2,171.6c0,0,18.5-20.7,43.2-18.6c24.7,2.1,49.5,21.2,61.8,51.2s16,75.3,16,75.3s-40,11.4-80.7,1
				C474.6,280.6,464,226.8,434.2,171.6z"/>
		</g>
		<g>
			<path class="st7" d="M434.2,171.6c-6.2,6.5-24.1,36.2-29.2,37.3c-5.2,1.1-12.5-3.5-18.3-1.7c-5.8,1.7-11.7,7-10.4,10.4
				s14.9,12.4,31.8,12.9c14.4,0.4,44.9-35.5,44.9-35.5C453.1,181,434.2,171.6,434.2,171.6z"/>
			<path class="st42" d="M434.2,171.6c-6.2,6.5-24.1,36.2-29.2,37.3c-5.2,1.1-12.5-3.5-18.3-1.7c-5.8,1.7-11.7,7-10.4,10.4
				s14.9,12.4,31.8,12.9c14.4,0.4,44.9-35.5,44.9-35.5C453.1,181,434.2,171.6,434.2,171.6z"/>
		</g>
		<g>
			<path class="st7" d="M553.8,289.6c-42,8.1-83.1-8.5-83.1-8.5s-0.1-3-0.6-7.7v0c-0.2-1.8-0.5-3.8-0.8-6c-0.3-2-0.7-4.1-1.1-6.3
				c-1.2-5.9-2.9-12.4-5.3-18.5c-2.3-5.8-4.1-10.5-5.5-14.4c-0.2-0.6-0.4-1.1-0.6-1.6c-0.6-1.7-1.1-3.2-1.6-4.6
				c-3-9.3-2.6-11.1-2.6-11.1c10.6,1.5,11.4-20.4-2.8-36.7c-5.2-6-11.7-6.3-11.7-6.3s-1.4-2.3,13.5-10.8c8.1-4.6,17.1-1.2,23.8-1.2
				c10.7,0,12.4-1.5,12.4-1.5c17.6,0,38.7,23.2,52.4,50.7c0.7,1.4,1.4,2.8,2,4.2c0.7,1.4,1.3,2.9,1.9,4.4
				c4.8,11.3,8.2,22.9,9.6,33.7c0.1,1.2,0.3,2.3,0.4,3.4c0.2,1.6,0.4,3.1,0.5,4.5c0.2,1.8,0.4,3.5,0.5,5.1
				C557.8,288.4,553.8,289.6,553.8,289.6z"/>
			<path class="st53" d="M457.3,228.1l17.3,14.1l-6.4,18.8c-1.2-5.9-2.9-12.4-5.3-18.5C460.5,236.7,458.7,232,457.3,228.1z"/>
			<polygon class="st53" points="484.3,213.7 509.5,242 504.3,266.5 474.6,242.2 			"/>
			<polygon class="st53" points="516.7,208 540.1,234.6 533.3,268.9 509.5,242 			"/>
			<path class="st53" d="M554.2,250.7l-14.1-16.1l4.1-21c4.8,11.3,8.2,22.9,9.6,33.7C553.9,248.5,554.1,249.6,554.2,250.7z"/>
			<g class="st54">
				<path class="st3" d="M542.2,209.2l-4.5,18.4l-22.7-24.5l-7.3,32.4l-25.4-30.2l-9.4,32.3l-16.3-11.1c-0.6-1.7-1.1-3.2-1.6-4.6
					l16.2,11l9.8-33.7l25.1,29.9l7.2-32l22.8,24.5l4-16.6C540.9,206.4,541.6,207.8,542.2,209.2z"/>
			</g>
			<g class="st54">
				<path class="st3" d="M555.2,260.3l-10.8-12.6l-7.3,35.9l-24-26.4l-5.2,21.4L478,253l-8,20.3c-0.2-1.8-0.5-3.8-0.8-6l7.5-19.2
					l29.4,25.2l5.4-22.1l23.8,26.2l7.3-36.1l12,13.9C554.9,257.1,555.1,258.7,555.2,260.3z"/>
			</g>
		</g>
	</g>
	<g>
		<path class="st7" d="M446.4,308.4H568c2.8,0,5,2.2,5,5v12.1H441.4v-12.1C441.4,310.6,443.7,308.4,446.4,308.4z"/>
		<path class="st41" d="M446.4,308.4H568c2.8,0,5,2.2,5,5v12.1H441.4v-12.1C441.4,310.6,443.7,308.4,446.4,308.4z"/>
		<path class="st38" d="M568.7,422.9l-42.2-4.1v-59.3h-16.7v59.2l-42.3,4.2c-4.2,0.4-7.4,3.9-7.4,8.2v6.3h56.5h3.1h56.5V431
			C576.1,426.8,572.9,423.3,568.7,422.9z"/>
		<path class="st44" d="M568.7,422.9l-42.2-4.1v-59.3h-16.7v59.2l-42.3,4.2c-4.2,0.4-7.4,3.9-7.4,8.2v6.3h56.5h3.1h56.5V431
			C576.1,426.8,572.9,423.3,568.7,422.9z"/>
		<circle class="st38" cx="464.6" cy="445.2" r="10.9"/>
		<circle class="st38" cx="571.7" cy="445.2" r="10.9"/>
		<path class="st38" d="M525.3,372.2h-14.2c-2.3,0-4.1-1.9-4.1-4.1v-48.6h22.5v48.6C529.5,370.4,527.6,372.2,525.3,372.2z"/>
		<path class="st53" d="M525.3,372.2h-14.2c-2.3,0-4.1-1.9-4.1-4.1v-48.6h22.5v48.6C529.5,370.4,527.6,372.2,525.3,372.2z"/>
		<path class="st7" d="M493.2,319.4c0,0,20.9-66.8,24.5-164.4c0.4-11.6,10-20.8,21.7-20.8h38.9c11.9,0,21.7,9.6,21.7,21.6
			c0.2,35.4-2.3,107.9-22.3,166.7L493.2,319.4z"/>
		<path class="st41" d="M493.2,319.4c0,0,20.9-66.8,24.5-164.4c0.4-11.6,10-20.8,21.7-20.8h38.9c11.9,0,21.7,9.6,21.7,21.6
			c0.2,35.4-2.3,107.9-22.3,166.7L493.2,319.4z"/>
		<g>
			<path class="st38" d="M506.5,318.6c0,0,20-71.1,23.3-161c0.4-10.7,9.3-19.2,20-19.2h35.9c11,0,20,8.9,20,19.9
				c0.1,32.7-2.1,106-20.6,160.3H506.5z"/>
			<path class="st53" d="M585.1,318.6h-78.6c0,0,20-71.1,23.3-161c0.4-10.7,9.2-19.2,20-19.2h35.9c11,0,20,8.9,20,19.9
				C605.8,191,603.5,264.3,585.1,318.6z"/>
			<path class="st38" d="M521.9,267c0,0-42.6-8.6-83.8-4.4s19.4,58,19.4,58h8.5c0,0-32.1-34.1-30.3-42.6c1.8-8.5,82.6,2.7,82.6,2.7
				L521.9,267z"/>
			<path class="st53" d="M521.9,267c0,0-42.6-8.6-83.8-4.4s19.4,58,19.4,58h8.5c0,0-32.1-34.1-30.3-42.6c1.8-8.5,82.6,2.7,82.6,2.7
				L521.9,267z"/>
			<path class="st41" d="M585.1,318.6h-69.8c0,0,20-71.1,23.3-161c0.4-10.7,9.2-19.2,20-19.2h27.1c11,0,20,8.9,20,19.9
				C605.8,191,603.5,264.3,585.1,318.6z"/>
		</g>
		<g>
			<path class="st38" d="M438.8,316.9h145.7c1.1,0,2,0.9,2,2v4.5c0,1.1-0.9,2-2,2H438.8c-1.1,0-2-0.9-2-2V319
				C436.8,317.8,437.7,316.9,438.8,316.9z"/>
			<path class="st39" d="M438.8,316.9h145.7c1.1,0,2,0.9,2,2v4.5c0,1.1-0.9,2-2,2H438.8c-1.1,0-2-0.9-2-2V319
				C436.8,317.8,437.7,316.9,438.8,316.9z"/>
		</g>
	</g>
</g>
<g>
	<path class="st1" d="M728.7,362c-0.4-2.3-0.4-4.7,0.2-7c2-7.6,4.2-22-0.8-37.5c-8.3-25.9-41.9-48.8-41.9-48.8s9.1,38.2,16.6,54.5
		c5.5,11.9,15.1,25.5,20.4,32.6c1.5,2,2.5,4.3,2.9,6.7c5.4,30.1,4.6,53.3,4.6,53.7l2.5,0.1C733.4,415.8,734.2,392.3,728.7,362z"/>
	<path class="st36" d="M755.5,337.6c6.7-21.1,9.8-46,9.8-46s-30.1,24.9-32.6,44.1c-1.5,11.8,0.4,21.2,2.1,26.8
		c0.7,2.4,1,4.8,0.7,7.3c-3,28.3-0.7,50-0.6,50.3l2.3-0.3c0-0.3-2.3-20.5,0.4-47.2c0.4-3.7,1.8-7.1,4.2-10
		C745.9,357.4,752.1,348.5,755.5,337.6z"/>
	<path class="st1" d="M786.2,290.7c0,0-32.5,12-40.9,38.5c-5.2,16.1-2.7,31-0.7,38.8c0.6,2.2,0.5,4.4,0,6.6
		c-7.6,30.5-7.7,62.1-7.7,62.5h2.6c0-0.4,0.1-31.2,7.5-61.1c0.7-3,2-5.8,3.8-8.2c5.5-7.5,15-20.9,20.4-32.7
		C778.8,318.4,786.2,290.7,786.2,290.7z"/>
	<path class="st36" d="M728.9,402.5c-0.8-11.1-3.8-21.1-7.5-29.5c-0.7-1.7-1-3.5-0.8-5.3c0.5-3.5,0.6-8.9-0.8-15.8
		c-2.6-13-19.9-41.1-44.9-42.7c0,0,8.6,13.9,13.1,25.5c5.6,14.7,13.6,30,26.9,35.9c2.3,1,4.2,3,5.1,5.3c3.2,7.8,5.8,16.8,6.5,26.8
		L728.9,402.5z"/>
	<g>
		<g>
			<path class="st1" d="M712,459.4h41.2l10.7-65.4c0.5-2.9-1.8-5.5-4.7-5.5H706c-2.9,0-5.2,2.6-4.7,5.5L712,459.4z"/>
		</g>
	</g>
</g>
<g>
	<g>
		<polygon class="st7" points="763.1,78.5 710.1,78.5 710.1,9.2 750.1,9.2 763.1,22.3 		"/>
		<polygon class="st47" points="763.1,78.5 710.1,78.5 710.1,9.2 750.1,9.2 763.1,22.3 		"/>
		<polygon class="st7" points="763.1,22.3 750.1,22.3 750.1,9.2 		"/>
		<g>
			<path class="st7" d="M722.3,33.6c0,2.2,1.8,3.9,4,3.9c2.2,0,3.9-1.8,3.9-4c0-2.2-1.8-3.9-4-3.9C724.1,29.7,722.3,31.4,722.3,33.6
				z"/>
			<polygon class="st7" points="728.4,51.2 755.3,51.2 741.9,34.8 			"/>
			<g>
				<polygon class="st7" points="717.9,51.2 740.1,51.2 729,40.5 				"/>
				<polygon class="st55" points="717.9,51.2 740.1,51.2 729,40.5 				"/>
			</g>
			<rect x="717.9" y="25" class="st56" width="37.3" height="26.2"/>
		</g>
		<g>
			<rect x="697.2" y="54" class="st57" width="38.1" height="15.8"/>
			<g>
				<path class="st3" d="M708.4,58.3V66h-1.5v-3.3h-3.5V66H702v-7.6h1.5v3.1h3.5v-3.1H708.4z"/>
				<path class="st3" d="M715.7,59.6h-2.4V66h-1.5v-6.3h-2.4v-1.3h6.4V59.6z"/>
				<path class="st3" d="M722.9,66v-5.1l-2,3.8h-0.8l-2-3.8V66h-1.5v-7.6h1.6l2.3,4.3l2.3-4.3h1.6V66H722.9z"/>
				<path class="st3" d="M726,66v-7.6h1.5v6.3h3.9V66H726z"/>
			</g>
		</g>
	</g>
	<g>
		<polygon class="st7" points="763.1,168.8 710.1,168.8 710.1,99.6 750.1,99.6 763.1,112.6 		"/>
		<polygon class="st47" points="763.1,168.8 710.1,168.8 710.1,99.6 750.1,99.6 763.1,112.6 		"/>
		<polygon class="st7" points="763.1,112.6 750.1,112.6 750.1,99.6 		"/>
		<g>
			<path class="st7" d="M722.3,124c0,2.2,1.8,3.9,4,3.9c2.2,0,3.9-1.8,3.9-4c0-2.2-1.8-3.9-4-3.9C724.1,120,722.3,121.8,722.3,124z"
				/>
			<polygon class="st7" points="728.4,141.6 755.3,141.6 741.9,125.2 			"/>
			<g>
				<polygon class="st7" points="717.9,141.6 740.1,141.6 729,130.9 				"/>
				<polygon class="st55" points="717.9,141.6 740.1,141.6 729,130.9 				"/>
			</g>
			<rect x="717.9" y="115.4" class="st56" width="37.3" height="26.2"/>
		</g>
		<g>
			<rect x="697.2" y="144.4" class="st57" width="38.1" height="15.8"/>
			<g>
				<path class="st3" d="M706.2,152.4c0-0.5,0.1-0.9,0.3-1.4c0.2-0.5,0.4-0.9,0.7-1.2c0.3-0.4,0.7-0.6,1.2-0.9
					c0.5-0.2,1-0.3,1.6-0.3c0.7,0,1.3,0.2,1.8,0.5c0.5,0.3,0.9,0.7,1.1,1.2l-1.1,0.8c-0.1-0.2-0.2-0.4-0.4-0.5
					c-0.1-0.1-0.3-0.3-0.5-0.3c-0.2-0.1-0.3-0.1-0.5-0.2c-0.2,0-0.4-0.1-0.5-0.1c-0.4,0-0.7,0.1-1,0.2c-0.3,0.2-0.5,0.3-0.7,0.6
					c-0.2,0.2-0.3,0.5-0.4,0.8c-0.1,0.3-0.1,0.6-0.1,0.9c0,0.3,0.1,0.7,0.2,1c0.1,0.3,0.3,0.6,0.5,0.8c0.2,0.2,0.4,0.4,0.7,0.6
					c0.3,0.1,0.6,0.2,0.9,0.2c0.2,0,0.4,0,0.5-0.1c0.2,0,0.4-0.1,0.5-0.2c0.2-0.1,0.3-0.2,0.5-0.4c0.1-0.1,0.3-0.3,0.3-0.5l1.2,0.7
					c-0.1,0.3-0.3,0.5-0.5,0.8c-0.2,0.2-0.5,0.4-0.8,0.6c-0.3,0.2-0.6,0.3-0.9,0.3c-0.3,0.1-0.6,0.1-0.9,0.1c-0.5,0-1-0.1-1.5-0.3
					c-0.5-0.2-0.8-0.5-1.2-0.9c-0.3-0.4-0.6-0.8-0.8-1.3C706.3,153.4,706.2,152.9,706.2,152.4z"/>
				<path class="st3" d="M718.6,150.7c-0.1-0.1-0.1-0.1-0.3-0.2c-0.1-0.1-0.3-0.2-0.5-0.3c-0.2-0.1-0.4-0.2-0.6-0.2
					c-0.2-0.1-0.4-0.1-0.7-0.1c-0.4,0-0.7,0.1-0.9,0.2c-0.2,0.2-0.3,0.4-0.3,0.6c0,0.2,0,0.3,0.1,0.4c0.1,0.1,0.2,0.2,0.3,0.3
					c0.1,0.1,0.3,0.2,0.5,0.2c0.2,0.1,0.5,0.1,0.8,0.2c0.4,0.1,0.7,0.2,1,0.3c0.3,0.1,0.6,0.3,0.8,0.4c0.2,0.2,0.4,0.4,0.5,0.6
					c0.1,0.2,0.2,0.5,0.2,0.9c0,0.4-0.1,0.8-0.2,1c-0.2,0.3-0.4,0.5-0.6,0.7c-0.3,0.2-0.6,0.3-0.9,0.4c-0.3,0.1-0.7,0.1-1.1,0.1
					c-0.6,0-1.1-0.1-1.7-0.3c-0.6-0.2-1.1-0.4-1.5-0.7l0.7-1.3c0.1,0.1,0.2,0.1,0.3,0.3c0.2,0.1,0.4,0.2,0.6,0.3
					c0.2,0.1,0.5,0.2,0.8,0.3c0.3,0.1,0.6,0.1,0.9,0.1c0.8,0,1.2-0.3,1.2-0.8c0-0.2,0-0.3-0.1-0.4c-0.1-0.1-0.2-0.2-0.4-0.3
					c-0.2-0.1-0.4-0.2-0.6-0.2c-0.2-0.1-0.5-0.2-0.8-0.2c-0.4-0.1-0.7-0.2-1-0.3c-0.3-0.1-0.5-0.3-0.7-0.4c-0.2-0.2-0.3-0.3-0.4-0.6
					c-0.1-0.2-0.1-0.5-0.1-0.8c0-0.4,0.1-0.7,0.2-1c0.1-0.3,0.3-0.6,0.6-0.8c0.3-0.2,0.6-0.4,0.9-0.5c0.3-0.1,0.7-0.2,1.1-0.2
					c0.5,0,1,0.1,1.5,0.3c0.5,0.2,0.8,0.4,1.2,0.6L718.6,150.7z"/>
				<path class="st3" d="M725.2,150.7c-0.1-0.1-0.1-0.1-0.3-0.2c-0.1-0.1-0.3-0.2-0.5-0.3c-0.2-0.1-0.4-0.2-0.6-0.2
					c-0.2-0.1-0.4-0.1-0.7-0.1c-0.4,0-0.7,0.1-0.9,0.2c-0.2,0.2-0.3,0.4-0.3,0.6c0,0.2,0,0.3,0.1,0.4c0.1,0.1,0.2,0.2,0.3,0.3
					c0.1,0.1,0.3,0.2,0.5,0.2c0.2,0.1,0.5,0.1,0.8,0.2c0.4,0.1,0.7,0.2,1,0.3c0.3,0.1,0.6,0.3,0.8,0.4c0.2,0.2,0.4,0.4,0.5,0.6
					c0.1,0.2,0.2,0.5,0.2,0.9c0,0.4-0.1,0.8-0.2,1c-0.2,0.3-0.4,0.5-0.6,0.7c-0.3,0.2-0.6,0.3-0.9,0.4c-0.3,0.1-0.7,0.1-1.1,0.1
					c-0.6,0-1.1-0.1-1.7-0.3c-0.6-0.2-1.1-0.4-1.5-0.7l0.7-1.3c0.1,0.1,0.2,0.1,0.4,0.3c0.2,0.1,0.4,0.2,0.6,0.3
					c0.2,0.1,0.5,0.2,0.8,0.3c0.3,0.1,0.6,0.1,0.9,0.1c0.8,0,1.2-0.3,1.2-0.8c0-0.2,0-0.3-0.1-0.4c-0.1-0.1-0.2-0.2-0.4-0.3
					c-0.2-0.1-0.4-0.2-0.6-0.2c-0.2-0.1-0.5-0.2-0.8-0.2c-0.4-0.1-0.7-0.2-1-0.3c-0.3-0.1-0.5-0.3-0.7-0.4c-0.2-0.2-0.3-0.3-0.4-0.6
					c-0.1-0.2-0.1-0.5-0.1-0.8c0-0.4,0.1-0.7,0.2-1c0.1-0.3,0.3-0.6,0.6-0.8c0.3-0.2,0.6-0.4,0.9-0.5c0.3-0.1,0.7-0.2,1.1-0.2
					c0.5,0,1,0.1,1.5,0.3c0.5,0.2,0.8,0.4,1.2,0.6L725.2,150.7z"/>
			</g>
		</g>
	</g>
	<g>
		<polygon class="st7" points="763.1,259.2 710.1,259.2 710.1,190 750.1,190 763.1,203 		"/>
		<polygon class="st47" points="763.1,259.2 710.1,259.2 710.1,190 750.1,190 763.1,203 		"/>
		<polygon class="st7" points="763.1,203 750.1,203 750.1,190 		"/>
		<g>
			<path class="st7" d="M722.3,214.4c0,2.2,1.8,3.9,4,3.9c2.2,0,3.9-1.8,3.9-4c0-2.2-1.8-3.9-4-3.9
				C724.1,210.4,722.3,212.2,722.3,214.4z"/>
			<polygon class="st7" points="728.4,231.9 755.3,231.9 741.9,215.6 			"/>
			<g>
				<polygon class="st7" points="717.9,231.9 740.1,231.9 729,221.3 				"/>
				<polygon class="st55" points="717.9,231.9 740.1,231.9 729,221.3 				"/>
			</g>
			<rect x="717.9" y="205.7" class="st56" width="37.3" height="26.2"/>
		</g>
		<g>
			<rect x="697.2" y="234.7" class="st57" width="38.1" height="15.8"/>
			<g>
				<path class="st3" d="M711.3,245.1c0.1,0.1,0.3,0.2,0.5,0.2c0.2,0.1,0.5,0.1,0.8,0.1c0.3,0,0.5-0.1,0.7-0.2
					c0.2-0.1,0.3-0.3,0.4-0.5c0.1-0.2,0.2-0.5,0.2-0.8c0-0.3,0-0.7,0-1.1V239h1.5v3.9c0,0.6,0,1.1-0.1,1.6c-0.1,0.5-0.2,0.9-0.4,1.2
					c-0.2,0.3-0.5,0.6-0.9,0.8c-0.4,0.2-0.9,0.3-1.5,0.3c-0.6,0-1.2-0.2-1.7-0.5L711.3,245.1z"/>
				<path class="st3" d="M718.9,246.8c-0.5,0-0.9-0.1-1.4-0.2c-0.5-0.2-0.8-0.4-1.2-0.6l0.5-0.9c0.3,0.2,0.7,0.4,1,0.6
					c0.3,0.1,0.7,0.2,1,0.2c0.3,0,0.5-0.1,0.7-0.2c0.2-0.1,0.2-0.3,0.2-0.5c0-0.2-0.1-0.3-0.3-0.4c-0.2-0.1-0.5-0.2-0.9-0.3
					c-0.4-0.1-0.7-0.2-0.9-0.3c-0.3-0.1-0.5-0.2-0.6-0.3c-0.2-0.1-0.3-0.3-0.3-0.4c-0.1-0.2-0.1-0.3-0.1-0.6c0-0.3,0.1-0.5,0.2-0.8
					c0.1-0.2,0.3-0.4,0.5-0.6c0.2-0.2,0.4-0.3,0.7-0.4c0.3-0.1,0.6-0.1,0.9-0.1c0.4,0,0.8,0.1,1.2,0.2c0.4,0.1,0.7,0.3,1,0.6
					l-0.6,0.9c-0.3-0.2-0.6-0.4-0.8-0.5c-0.3-0.1-0.5-0.2-0.8-0.2c-0.2,0-0.4,0.1-0.6,0.2c-0.2,0.1-0.2,0.3-0.2,0.5
					c0,0.1,0,0.2,0.1,0.2c0,0.1,0.1,0.1,0.2,0.2c0.1,0.1,0.2,0.1,0.3,0.1c0.1,0,0.3,0.1,0.5,0.1c0.4,0.1,0.7,0.2,1,0.3
					c0.3,0.1,0.5,0.2,0.7,0.3c0.2,0.1,0.3,0.3,0.4,0.4c0.1,0.2,0.1,0.4,0.1,0.6c0,0.6-0.2,1-0.6,1.3
					C720.1,246.6,719.6,246.8,718.9,246.8z"/>
			</g>
		</g>
	</g>
	<g>
		<g>
			<g>
				<polyline class="st58" points="691,152.3 691,61.9 693.7,61.9 				"/>
				<g>
					<circle class="st38" cx="693.6" cy="61.9" r="1.5"/>
				</g>
			</g>
		</g>
		<g>
			<g>
				<polyline class="st58" points="529.7,102.4 529.7,66.8 677.4,66.8 				"/>
				<g>
					<path class="st38" d="M531.2,102.3c0,0.8-0.7,1.5-1.5,1.5c-0.8,0-1.5-0.7-1.5-1.5c0-0.8,0.7-1.5,1.5-1.5
						C530.5,100.8,531.2,101.5,531.2,102.3z"/>
				</g>
				<g>
					<circle class="st38" cx="677.4" cy="66.8" r="1.5"/>
				</g>
			</g>
		</g>
		<g>
			<g>
				<polyline class="st58" points="691,152.3 691,242.6 693.7,242.6 				"/>
				<g>
					<circle class="st38" cx="693.6" cy="242.6" r="1.5"/>
				</g>
			</g>
		</g>
		<g>
			<g>
				<polyline class="st58" points="769.4,152.3 769.4,61.9 766.7,61.9 				"/>
				<g>
					<path class="st38" d="M766.7,60.4c-0.8,0-1.5,0.7-1.5,1.5c0,0.8,0.7,1.5,1.5,1.5c0.8,0,1.5-0.7,1.5-1.5
						C768.3,61.1,767.6,60.4,766.7,60.4z"/>
				</g>
			</g>
		</g>
		<g>
			<g>
				<polyline class="st58" points="769.4,152.3 769.4,242.6 766.7,242.6 				"/>
				<g>
					<path class="st38" d="M766.7,241.1c-0.8,0-1.5,0.7-1.5,1.5c0,0.8,0.7,1.5,1.5,1.5c0.8,0,1.5-0.7,1.5-1.5
						C768.3,241.8,767.6,241.1,766.7,241.1z"/>
				</g>
			</g>
		</g>
	</g>
</g>
</svg>
